<svg version="1.2" xmlns="http://www.w3.org/2000/svg" viewBox="0 0 1144 1144" width="1144" height="1144"><defs><linearGradient id="P" gradientUnits="userSpaceOnUse"/><linearGradient id="g1" x1="0" y1="1070.2" x2="1145" y2="74.8" href="#P"><stop stop-color="#ca61d3"/><stop offset=".01" stop-color="#ca61d3"/><stop offset="1" stop-color="#90c4ff"/></linearGradient></defs><style>.a{fill:url(#g1)}.b{fill:#fff}</style><path class="a" d="m572.5 1145c-316.6 0-572.5-255.9-572.5-572.5 0-316.6 255.9-572.5 572.5-572.5 316.6 0 572.5 255.9 572.5 572.5 0 316.6-255.9 572.5-572.5 572.5z"/><path class="b" d="m604.1 334.9c0-36.5 29.5-66 66-66h143.9c36.5 0 66 29.5 66 66v143.9c0 36.4-29.5 66-66 66h-143.9c-36.5 0-66-29.6-66-66z"/><path class="b" d="m263 334.9c0-36.5 29.5-66 66-66h143.9c36.5 0 66 29.5 66 66v143.9c0 36.4-29.5 66-66 66h-143.9c-36.5 0-66-29.6-66-66z"/><path class="b" d="m604.1 665.1c0-36.5 29.5-66 66-66h143.9c36.5 0 66 29.5 66 66v143.9c0 36.5-29.5 66-66 66h-143.9c-36.5 0-66-29.5-66-66z"/><path class="b" d="m263 665.1c0-36.5 29.5-66 66-66h143.9c36.5 0 66 29.5 66 66v143.9c0 36.5-29.5 66-66 66h-143.9c-36.5 0-66-29.5-66-66z"/></svg>