<svg version="1.2" xmlns="http://www.w3.org/2000/svg" viewBox="0 0 2980 80" width="1000" height="27"><style>.a{fill:#be0000}.b{fill:#0400be}</style><path class="a" d="m280 1l-40.2 80h-239.8l39.8-80z"/><path class="a" d="m880 1l-40.2 80h-239.8l39.8-80z"/><path class="a" d="m1480 1l-40.2 80h-239.8l39.8-80z"/><path class="a" d="m2080 1l-40.2 80h-239.8l39.8-80z"/><path class="a" d="m2680 1l-40.2 80h-239.8l39.8-80z"/><path class="b" d="m580 1l-40.2 80h-239.8l39.8-80z"/><path class="b" d="m1180 1l-40.2 80h-239.8l39.8-80z"/><path class="b" d="m1780 1l-40.2 80h-239.8l39.8-80z"/><path class="b" d="m2380 1l-40.2 80h-239.8l39.8-80z"/><path class="b" d="m2980 1l-40.2 80h-239.8l39.8-80z"/></svg>